<svg width="20" height="20" viewBox="0 0 20 20" fill="none" xmlns="http://www.w3.org/2000/svg">
<path d="M13.491 1.66699H6.50768C3.47435 1.66699 1.66602 3.47533 1.66602 6.50866V13.4837C1.66602 16.5253 3.47435 18.3337 6.50768 18.3337H13.4827C16.516 18.3337 18.3243 16.5253 18.3243 13.492V6.50866C18.3327 3.47533 16.5243 1.66699 13.491 1.66699ZM14.8743 11.7503C14.841 11.8253 14.7993 11.892 14.741 11.9503L12.2077 14.4837C12.0827 14.6087 11.9243 14.667 11.766 14.667C11.6077 14.667 11.4493 14.6087 11.3243 14.4837C11.0827 14.242 11.0827 13.842 11.3243 13.6003L12.791 12.1337H5.70768C5.36602 12.1337 5.08268 11.8503 5.08268 11.5087C5.08268 11.167 5.36602 10.8837 5.70768 10.8837H14.2993C14.3827 10.8837 14.4577 10.9003 14.541 10.9337C14.691 11.0003 14.816 11.117 14.8827 11.2753C14.9327 11.4253 14.9327 11.6003 14.8743 11.7503ZM14.291 9.10866H5.70768C5.62435 9.10866 5.54935 9.09199 5.46602 9.05866C5.31602 8.99199 5.19102 8.87533 5.12435 8.71699C5.05768 8.56699 5.05768 8.39199 5.12435 8.24199C5.15768 8.16699 5.19935 8.10033 5.25768 8.04199L7.79102 5.50866C8.03268 5.26699 8.43268 5.26699 8.67435 5.50866C8.91602 5.75033 8.91602 6.15033 8.67435 6.39199L7.21602 7.85866H14.2993C14.641 7.85866 14.9243 8.14199 14.9243 8.48366C14.9243 8.82533 14.641 9.10866 14.291 9.10866Z" fill="#2A84FE"/>
</svg>
