<svg width="24" height="24" viewBox="0 0 24 24" fill="none" xmlns="http://www.w3.org/2000/svg">
<path d="M11.9381 5.40449e-06C11.8454 -0.000357345 11.7535 0.0175441 11.6677 0.0526877C11.5819 0.0878313 11.5039 0.139529 11.4381 0.204828C11.3723 0.270128 11.32 0.34775 11.2842 0.433264C11.2483 0.518779 11.2297 0.610509 11.2294 0.703219V4.59571C11.229 4.68888 11.2471 4.78121 11.2826 4.86736C11.3181 4.95351 11.3702 5.03179 11.4361 5.09767C11.502 5.16356 11.5803 5.21575 11.6664 5.25123C11.7526 5.28672 11.8449 5.3048 11.9381 5.30444C12.0309 5.30426 12.1228 5.28577 12.2085 5.25004C12.2941 5.21431 12.3719 5.16203 12.4374 5.0962C12.5028 5.03037 12.5546 4.95228 12.5899 4.8664C12.6251 4.78052 12.643 4.68854 12.6427 4.59571V0.703219C12.6419 0.516701 12.5674 0.33805 12.4354 0.20629C12.3034 0.0745302 12.1246 0.000368849 11.9381 5.40449e-06ZM3.60018 2.89145C3.50715 2.89147 3.41504 2.90987 3.32914 2.9456C3.24324 2.98133 3.16525 3.03369 3.09966 3.09966C2.96814 3.23194 2.89431 3.41089 2.89431 3.59742C2.89431 3.78396 2.96814 3.96291 3.09966 4.09519L5.85184 6.85289C5.91745 6.91884 5.99544 6.97118 6.08134 7.00689C6.16723 7.04261 6.25934 7.06099 6.35237 7.06099C6.44539 7.06099 6.5375 7.04261 6.6234 7.00689C6.70929 6.97118 6.78729 6.91884 6.85289 6.85289C6.91884 6.78728 6.97118 6.70929 7.00689 6.62339C7.04261 6.5375 7.06099 6.44539 7.06099 6.35237C7.06099 6.25934 7.04261 6.16723 7.00689 6.08133C6.97118 5.99544 6.91884 5.91745 6.85289 5.85184L4.09519 3.09966C3.96405 2.96776 3.78617 2.89294 3.60018 2.89145ZM8.96666 8.23312C8.85542 8.22877 8.74473 8.25079 8.64362 8.29739C8.54251 8.34398 8.45385 8.41382 8.38488 8.50121C8.31591 8.5886 8.26858 8.69106 8.24676 8.80023C8.22493 8.9094 8.22924 9.02218 8.25931 9.12937L12.2249 23.4818C12.2617 23.6153 12.337 23.735 12.4414 23.826C12.5457 23.9171 12.6746 23.9754 12.8118 23.9938C12.9491 24.0121 13.0887 23.9897 13.2133 23.9293C13.338 23.869 13.4421 23.7733 13.5127 23.6542L15.8471 19.6831L19.0778 22.9137C19.2101 23.0452 19.389 23.119 19.5755 23.119C19.7621 23.119 19.941 23.0452 20.0733 22.9137L22.9137 20.0733C23.0452 19.941 23.119 19.7621 23.119 19.5755C23.119 19.389 23.0452 19.21 22.9137 19.0778L19.6514 15.8154L23.6431 13.5182C23.7642 13.4491 23.862 13.3457 23.9244 13.2211C23.9867 13.0964 24.0108 12.9561 23.9935 12.8178C23.9763 12.6795 23.9185 12.5494 23.8274 12.4439C23.7364 12.3384 23.6161 12.2622 23.4818 12.2249L9.12937 8.25931C9.07634 8.24426 9.02174 8.23547 8.96666 8.23312ZM0.703219 11.2294C0.61051 11.2297 0.518779 11.2483 0.433265 11.2842C0.347751 11.32 0.270128 11.3723 0.204828 11.4381C0.139529 11.5039 0.0878313 11.5819 0.0526877 11.6677C0.0175441 11.7535 -0.000357345 11.8454 5.40448e-06 11.9381C0.000368357 12.1246 0.0745296 12.3034 0.20629 12.4354C0.33805 12.5674 0.516701 12.6419 0.703219 12.6427H4.59571C4.68854 12.643 4.78052 12.6251 4.8664 12.5899C4.95228 12.5546 5.03037 12.5028 5.0962 12.4374C5.16203 12.3719 5.21431 12.2941 5.25004 12.2085C5.28577 12.1228 5.30426 12.0309 5.30444 11.9381C5.3048 11.8449 5.28672 11.7526 5.25123 11.6664C5.21575 11.5803 5.16355 11.502 5.09767 11.4361C5.03179 11.3702 4.95351 11.3181 4.86736 11.2826C4.78121 11.2471 4.68889 11.229 4.59571 11.2294H0.703219Z" fill="white"/>
</svg>
