<svg width="143" height="52" viewBox="0 0 143 52" fill="none" xmlns="http://www.w3.org/2000/svg">
<g clip-path="url(#clip0_2067_2314)">
<path fill-rule="evenodd" clip-rule="evenodd" d="M44.5288 36.0263C44.4845 35.9232 44.4408 35.8198 44.3979 35.716C43.1222 32.6363 42.4656 29.3354 42.4656 26.002C42.4656 22.6685 43.1222 19.3677 44.3979 16.2879C45.6735 13.2082 47.5433 10.4099 49.9004 8.05276L43.3734 1.52578C40.1592 4.74004 37.6095 8.55592 35.8699 12.7556C34.1304 16.9552 33.2351 21.4563 33.2351 26.002C33.2351 27.9285 33.3959 29.8471 33.7137 31.7381C35.795 32.2083 37.8375 32.856 39.8183 33.6764C41.445 34.3502 43.0188 35.1359 44.5288 36.0263ZM34.4262 35.0043C34.8144 36.4457 35.2963 37.8634 35.8699 39.2484C37.6095 43.448 40.1592 47.2639 43.3734 50.4781L45.4943 48.3572L47.7787 46.0729L49.9 43.9516C49.1907 43.2423 48.4521 42.5653 47.6866 41.9223C44.983 39.6515 41.9431 37.8037 38.6702 36.4481C37.2853 35.8744 35.8675 35.3925 34.4262 35.0043Z" fill="#2A84FE"/>
<path fill-rule="evenodd" clip-rule="evenodd" d="M15.7114 44.9736C12.6316 46.2493 9.83332 48.1191 7.4762 50.4762L0.949219 43.9492C4.16348 40.735 7.97935 38.1853 12.179 36.4457C16.3786 34.7062 20.8797 33.8109 25.4254 33.8108C29.971 33.8108 34.4722 34.7062 38.6718 36.4457C42.8714 38.1853 46.6873 40.735 49.9016 43.9492L43.3746 50.4762C41.0175 48.1191 38.2192 46.2493 35.1394 44.9736C32.0597 43.698 28.7589 43.0414 25.4254 43.0414C22.0919 43.0414 18.7911 43.698 15.7114 44.9736Z" fill="white"/>
<path fill-rule="evenodd" clip-rule="evenodd" d="M6.31963 15.9776C6.36395 16.0807 6.4076 16.1842 6.45057 16.2879C7.72624 19.3676 8.38281 22.6685 8.38282 26.002C8.38281 29.3354 7.72624 32.6363 6.45057 35.716C5.1749 38.7957 3.30514 41.594 0.948011 43.9512L7.47499 50.4781C10.6893 47.2639 13.2389 43.448 14.9785 39.2484C16.718 35.0487 17.6134 30.5476 17.6134 26.002C17.6134 24.0754 17.4525 22.1569 17.1348 20.2659C15.0534 19.7956 13.0109 19.1479 11.0301 18.3275C9.40341 17.6537 7.82966 16.868 6.31963 15.9776ZM7.47499 1.52578L5.35408 3.6467L3.06974 5.93104L0.948417 8.05236C1.65771 8.76165 2.39629 9.43858 3.16183 10.0816C5.86546 12.3524 8.90529 14.2002 12.1782 15.5558C13.5631 16.1295 14.9809 16.6114 16.4222 16.9996C16.034 15.5583 15.5522 14.1405 14.9785 12.7555C13.2389 8.55592 10.6892 4.74003 7.47499 1.52578Z" fill="white"/>
<path fill-rule="evenodd" clip-rule="evenodd" d="M35.1382 7.02636C38.218 5.75069 41.0163 3.88092 43.3734 1.5238L49.9004 8.05078C46.6861 11.265 42.8703 13.8147 38.6706 15.5543C34.471 17.2938 29.9699 18.1891 25.4242 18.1892C20.8786 18.1892 16.3774 17.2938 12.1778 15.5543C7.97817 13.8147 4.16229 11.265 0.948031 8.05079L7.47501 1.52381C9.83214 3.88093 12.6304 5.7507 15.7102 7.02636C18.7899 8.30203 22.0907 8.95861 25.4242 8.95861C28.7577 8.9586 32.0585 8.30203 35.1382 7.02636Z" fill="#2A84FE"/>
</g>
<path d="M66.8414 17L66.8414 8.516L68.5934 8.516L71.1254 12.86L73.6334 8.516L75.3374 8.516L75.3374 17L73.9574 17V10.388L71.4014 14.792L70.7774 14.792L68.2214 10.388V17L66.8414 17ZM82.4063 8.516L83.9783 8.516L80.9183 13.82V17L79.5263 17V13.832L76.4303 8.516L78.0383 8.516L80.2343 12.476L82.4063 8.516ZM88.3102 17L88.3102 8.516L94.1302 8.516V9.764L89.7022 9.764L89.7022 12.452L93.4942 12.452V13.688L89.7022 13.688L89.7022 17H88.3102ZM96.8858 17H95.4938L95.4938 8.516L96.8858 8.516L96.8858 17ZM98.857 17L98.857 8.516L100.357 8.516L104.581 14.888L104.581 8.516L105.961 8.516L105.961 17H104.473L100.225 10.652L100.225 17L98.857 17ZM113.627 17L113.003 15.284L109.151 15.284L108.515 17H107.003L110.219 8.516L111.947 8.516L115.151 17L113.627 17ZM112.571 14.036L111.083 9.884L109.583 14.036L112.571 14.036ZM116.201 17L116.201 8.516L117.701 8.516L121.925 14.888L121.925 8.516L123.305 8.516L123.305 17L121.817 17L117.569 10.652L117.569 17H116.201ZM128.799 9.656C128.351 9.656 127.963 9.74 127.635 9.908C127.315 10.076 127.051 10.3 126.843 10.58C126.635 10.86 126.479 11.188 126.375 11.564C126.279 11.932 126.231 12.32 126.231 12.728C126.231 13.144 126.283 13.54 126.387 13.916C126.491 14.292 126.647 14.624 126.855 14.912C127.071 15.192 127.343 15.416 127.671 15.584C127.999 15.752 128.387 15.836 128.835 15.836C129.387 15.836 129.847 15.716 130.215 15.476C130.591 15.236 130.827 14.912 130.923 14.504L132.315 14.504C132.251 14.912 132.115 15.276 131.907 15.596C131.707 15.916 131.455 16.188 131.151 16.412C130.847 16.628 130.495 16.796 130.095 16.916C129.695 17.028 129.267 17.084 128.811 17.084C128.147 17.084 127.563 16.976 127.059 16.76C126.563 16.544 126.147 16.244 125.811 15.86C125.475 15.476 125.223 15.02 125.055 14.492C124.887 13.964 124.803 13.384 124.803 12.752C124.803 12.136 124.887 11.564 125.055 11.036C125.231 10.5 125.487 10.04 125.823 9.656C126.159 9.264 126.575 8.96 127.071 8.744C127.575 8.52 128.159 8.408 128.823 8.408C129.759 8.408 130.531 8.628 131.139 9.068C131.747 9.508 132.115 10.156 132.243 11.012H130.875C130.771 10.596 130.539 10.268 130.179 10.028C129.819 9.78 129.359 9.656 128.799 9.656ZM133.744 8.516L139.636 8.516V9.764L135.136 9.764V12.176L139.12 12.176V13.436L135.136 13.436V15.764L139.636 15.764V17L133.744 17V8.516Z" fill="white"/>
<path d="M66.856 43V21.048H72.168L79.24 37.592L86.312 21.048H91.624V43H87.336V27.416L81.064 43H77.416L71.144 27.416V43H66.856ZM102.371 43.448C97.3788 43.448 94.0508 40.056 94.0508 35C94.0508 29.944 97.3788 26.552 102.371 26.552C104.259 26.552 106.339 27.416 107.555 28.728V27H111.395V43H107.555V41.272C106.339 42.584 104.259 43.448 102.371 43.448ZM102.755 40.056C105.635 40.056 107.555 38.04 107.555 35C107.555 31.96 105.635 29.944 102.755 29.944C99.8428 29.944 97.8908 31.96 97.8908 35C97.8908 38.04 99.8428 40.056 102.755 40.056ZM121.018 43.448C117.818 43.448 115.706 41.624 115.706 38.904V30.2H113.146V27H115.706V21.048H119.546V27H123.578V30.2H119.546V38.904C119.546 39.704 120.122 40.248 120.954 40.248H123.738V43C123.162 43.256 122.074 43.448 121.018 43.448ZM133.504 43.448C128.288 43.448 124.832 40.056 124.832 35C124.832 29.944 128.288 26.552 133.504 26.552C138.72 26.552 142.176 29.944 142.176 35V35.736L141.856 36.056H128.736C129.088 38.584 131.008 40.248 133.504 40.248C135.392 40.248 137.152 39.16 137.888 37.56H141.792C140.736 41.08 137.408 43.448 133.504 43.448ZM128.992 32.856H138.016C137.28 30.872 135.648 29.752 133.504 29.752C131.36 29.752 129.728 30.872 128.992 32.856Z" fill="white"/>
<defs>
<clipPath id="clip0_2067_2314">
<rect width="51" height="52" fill="white"/>
</clipPath>
</defs>
</svg>
