<svg width="21" height="20" viewBox="0 0 21 20" fill="none" xmlns="http://www.w3.org/2000/svg">
<path d="M10.4993 1.66797C5.90768 1.66797 2.16602 5.40964 2.16602 10.0013C2.16602 14.593 5.90768 18.3346 10.4993 18.3346C15.091 18.3346 18.8327 14.593 18.8327 10.0013C18.8327 5.40964 15.091 1.66797 10.4993 1.66797ZM13.2993 11.918C13.541 12.1596 13.541 12.5596 13.2993 12.8013C13.1743 12.9263 13.016 12.9846 12.8577 12.9846C12.6993 12.9846 12.541 12.9263 12.416 12.8013L10.4993 10.8846L8.58268 12.8013C8.45768 12.9263 8.29935 12.9846 8.14102 12.9846C7.98268 12.9846 7.82435 12.9263 7.69935 12.8013C7.45768 12.5596 7.45768 12.1596 7.69935 11.918L9.61601 10.0013L7.69935 8.08464C7.45768 7.84297 7.45768 7.44297 7.69935 7.2013C7.94102 6.95964 8.34102 6.95964 8.58268 7.2013L10.4993 9.11797L12.416 7.2013C12.6577 6.95964 13.0577 6.95964 13.2993 7.2013C13.541 7.44297 13.541 7.84297 13.2993 8.08464L11.3827 10.0013L13.2993 11.918Z" fill="white"/>
</svg>
