<svg width="50" height="50" viewBox="0 0 50 50" fill="none" xmlns="http://www.w3.org/2000/svg">
<rect width="50" height="50" rx="15" fill="#254761"/>
<path d="M19.6028 26.2024C19.4437 26.2024 19.2911 26.2656 19.1786 26.3781C19.066 26.4907 19.0028 26.6433 19.0028 26.8024V30.4024C19.0028 30.5615 19.066 30.7141 19.1786 30.8267C19.2911 30.9392 19.4437 31.0024 19.6028 31.0024C19.7619 31.0024 19.9146 30.9392 20.0271 30.8267C20.1396 30.7141 20.2028 30.5615 20.2028 30.4024V29.8024H20.7992C21.2766 29.8024 21.7344 29.6128 22.072 29.2752C22.4096 28.9376 22.5992 28.4798 22.5992 28.0024C22.5992 27.525 22.4096 27.0672 22.072 26.7296C21.7344 26.392 21.2766 26.2024 20.7992 26.2024H19.6028ZM20.7992 28.6024H20.2028V27.4024H20.7992C20.9583 27.4024 21.111 27.4656 21.2235 27.5781C21.336 27.6907 21.3992 27.8433 21.3992 28.0024C21.3992 28.1615 21.336 28.3141 21.2235 28.4267C21.111 28.5392 20.9583 28.6024 20.7992 28.6024ZM28.5968 26.8024C28.5968 26.6433 28.66 26.4907 28.7726 26.3781C28.8851 26.2656 29.0377 26.2024 29.1968 26.2024H31.0028C31.1619 26.2024 31.3146 26.2656 31.4271 26.3781C31.5396 26.4907 31.6028 26.6433 31.6028 26.8024C31.6028 26.9615 31.5396 27.1141 31.4271 27.2267C31.3146 27.3392 31.1619 27.4024 31.0028 27.4024H29.7956L29.7944 28.6048H31.0028C31.1619 28.6048 31.3146 28.668 31.4271 28.7805C31.5396 28.8931 31.6028 29.0457 31.6028 29.2048C31.6028 29.3639 31.5396 29.5165 31.4271 29.6291C31.3146 29.7416 31.1619 29.8048 31.0028 29.8048H29.7944L29.7968 30.4012C29.797 30.48 29.7816 30.558 29.7516 30.6309C29.7216 30.7038 29.6775 30.77 29.6219 30.8258C29.5096 30.9386 29.3571 31.0021 29.198 31.0024C29.0389 31.0027 28.8862 30.9398 28.7734 30.8275C28.6607 30.7152 28.5971 30.5627 28.5968 30.4036L28.5932 29.206V29.2036L28.5968 26.8024ZM24.3992 26.2024H24.9968C25.6333 26.2024 26.2438 26.4553 26.6939 26.9053C27.144 27.3554 27.3968 27.9659 27.3968 28.6024C27.3968 29.2389 27.144 29.8494 26.6939 30.2995C26.2438 30.7495 25.6333 31.0024 24.9968 31.0024H24.3992C24.2401 31.0024 24.0875 30.9392 23.975 30.8267C23.8624 30.7141 23.7992 30.5615 23.7992 30.4024V26.8024C23.7992 26.6433 23.8624 26.4907 23.975 26.3781C24.0875 26.2656 24.2401 26.2024 24.3992 26.2024ZM24.9992 29.8024C25.3175 29.8024 25.6227 29.676 25.8477 29.4509C26.0728 29.2259 26.1992 28.9207 26.1992 28.6024C26.1992 28.2841 26.0728 27.9789 25.8477 27.7539C25.6227 27.5288 25.3175 27.4024 24.9992 27.4024V29.8024ZM24.9992 20.2V13H17.7992C17.1627 13 16.5522 13.2529 16.1022 13.7029C15.6521 14.153 15.3992 14.7635 15.3992 15.4V23.4016C14.69 23.7388 14.1992 24.4624 14.1992 25.3V31.9C14.1992 32.7376 14.69 33.46 15.3992 33.7984V34.6C15.3992 35.2365 15.6521 35.847 16.1022 36.2971C16.5522 36.7471 17.1627 37 17.7992 37H32.1992C32.8357 37 33.4462 36.7471 33.8963 36.2971C34.3464 35.847 34.5992 35.2365 34.5992 34.6V33.7984C35.3084 33.4612 35.7992 32.7376 35.7992 31.9V25.3C35.7992 24.4624 35.3084 23.74 34.5992 23.4016V22.6H27.3992C26.7627 22.6 26.1523 22.3471 25.7022 21.8971C25.2521 21.447 24.9992 20.8365 24.9992 20.2ZM16.2992 25H33.6992C33.7788 25 33.8551 25.0316 33.9114 25.0879C33.9676 25.1441 33.9992 25.2204 33.9992 25.3V31.9C33.9992 31.9796 33.9676 32.0559 33.9114 32.1121C33.8551 32.1684 33.7788 32.2 33.6992 32.2H16.2992C16.2197 32.2 16.1433 32.1684 16.0871 32.1121C16.0308 32.0559 15.9992 31.9796 15.9992 31.9V25.3C15.9992 25.2204 16.0308 25.1441 16.0871 25.0879C16.1433 25.0316 16.2197 25 16.2992 25ZM26.7992 20.2V13.6L33.9992 20.8H27.3992C27.2401 20.8 27.0875 20.7368 26.975 20.6243C26.8624 20.5117 26.7992 20.3591 26.7992 20.2Z" fill="white"/>
</svg>
