<svg width="24" height="24" viewBox="0 0 24 24" fill="none" xmlns="http://www.w3.org/2000/svg">
<g clip-path="url(#clip0_2234_13327)">
<path fill-rule="evenodd" clip-rule="evenodd" d="M24 12C24 18.6274 18.6274 24 12 24C5.37258 24 0 18.6274 0 12C0 5.37258 5.37258 0 12 0C18.6274 0 24 5.37258 24 12ZM12.6486 6.28258C12.056 6.2032 11.4519 6.26938 10.8915 6.47569C10.331 6.68203 9.8305 7.02258 9.43747 7.46829C9.16352 7.77897 9.19329 8.25291 9.50397 8.52687C9.81465 8.80082 10.2886 8.77105 10.5625 8.46037C10.7884 8.20421 11.0793 8.00497 11.4097 7.88333C11.7402 7.76166 12.098 7.72222 12.4495 7.7693C12.801 7.81638 13.1327 7.94814 13.4144 8.15049C13.696 8.35274 13.9179 8.61845 14.0621 8.92141C14.2062 9.22421 14.2687 9.55582 14.2452 9.88617C14.2216 10.2166 14.1125 10.5376 13.9259 10.8196C13.7392 11.1018 13.4804 11.3366 13.1713 11.5001C12.8622 11.6638 12.5139 11.7502 12.1588 11.75C11.9599 11.7499 11.769 11.8289 11.6283 11.9695C11.4875 12.1102 11.4085 12.301 11.4085 12.5V14C11.4085 14.4142 11.7443 14.75 12.1585 14.75C12.5727 14.75 12.9085 14.4142 12.9085 14V13.1731C13.2439 13.1034 13.5689 12.9869 13.8731 12.8259C14.4004 12.5468 14.8494 12.1422 15.1769 11.6473C15.5044 11.1522 15.6992 10.5833 15.7414 9.99293C15.7835 9.40256 15.6714 8.81225 15.4166 8.27684C15.1618 7.7416 14.7734 7.27978 14.2895 6.93218C13.8057 6.58468 13.2413 6.36196 12.6486 6.28258ZM12.9163 16.3048C12.9163 15.8906 12.5805 15.5548 12.1663 15.5548C11.7521 15.5548 11.4163 15.8906 11.4163 16.3048V16.3232C11.4163 16.7374 11.7521 17.0732 12.1663 17.0732C12.5805 17.0732 12.9163 16.7374 12.9163 16.3232V16.3048Z" fill="#2A84FE"/>
</g>
<defs>
<clipPath id="clip0_2234_13327">
<rect width="24" height="24" fill="white"/>
</clipPath>
</defs>
</svg>
