<svg width="27" height="24" viewBox="0 0 27 24" fill="none" xmlns="http://www.w3.org/2000/svg">
<path d="M7 9C3.136 9 0 12.136 0 16C0 19.864 3.136 23 7 23C10.864 23 14 19.864 14 16C14 12.136 10.864 9 7 9ZM4.9 13.2C5.285 13.2 5.6 13.515 5.6 13.9C5.6 14.285 5.292 14.6 4.9 14.6C4.515 14.6 4.2 14.285 4.2 13.9C4.2 13.515 4.515 13.2 4.9 13.2ZM5.271 18.471C5.166 18.576 5.033 18.625 4.9 18.625C4.767 18.625 4.634 18.576 4.529 18.471C4.326 18.268 4.326 17.932 4.529 17.729L8.729 13.529C8.932 13.326 9.268 13.326 9.471 13.529C9.674 13.732 9.674 14.068 9.471 14.271L5.271 18.471ZM9.1 18.8C8.708 18.8 8.393 18.485 8.393 18.1C8.393 17.715 8.708 17.4 9.093 17.4C9.478 17.4 9.793 17.715 9.793 18.1C9.793 18.485 9.485 18.8 9.1 18.8Z" fill="white"/>
<line x1="15.7295" y1="2.27045" x2="24.7295" y2="11.2705" stroke="white" stroke-width="1.5"/>
<path d="M20 13C23.3 13 26 10.3 26 7C26 3.7 23.3 1 20 1C16.7 1 14 3.7 14 7C14 10.3 16.7 13 20 13Z" stroke="white" stroke-width="1.5" stroke-linecap="round" stroke-linejoin="round"/>
</svg>
