<svg width="20" height="20" viewBox="0 0 20 20" fill="none" xmlns="http://www.w3.org/2000/svg">
<path d="M15.6758 5.20807H16.8091C16.6508 4.98307 16.4841 4.77474 16.3091 4.56641L15.6758 5.20807Z" fill="white"/>
<path d="M15.4327 3.68359C15.2243 3.50859 15.016 3.34193 14.791 3.18359V4.31693L15.4327 3.68359Z" fill="white"/>
<path d="M16.3169 4.56686L18.7753 2.10853C19.0169 1.86686 19.0169 1.46686 18.7753 1.2252C18.5336 0.983529 18.1336 0.983529 17.8919 1.2252L15.4336 3.68353C15.7503 3.95853 16.0419 4.25853 16.3169 4.56686Z" fill="white"/>
<path d="M14.7924 2.5C14.7924 2.15833 14.5091 1.875 14.1674 1.875C13.8341 1.875 13.5674 2.14167 13.5508 2.46667C13.9841 2.675 14.4008 2.90833 14.7924 3.18333V2.5Z" fill="white"/>
<path d="M18.1253 5.83301C18.1253 5.49134 17.8419 5.20801 17.5003 5.20801H16.8086C17.0836 5.59967 17.3253 6.01634 17.5253 6.44967C17.8586 6.43301 18.1253 6.16634 18.1253 5.83301Z" fill="white"/>
<path d="M10.625 12.2917H10.875C11.2 12.2917 11.4583 12 11.4583 11.6417C11.4583 11.1917 11.3333 11.125 11.05 11.025L10.625 10.875V12.2917Z" fill="white"/>
<path d="M17.5327 6.45033C17.5243 6.45033 17.516 6.45866 17.4993 6.45866H14.166C14.0827 6.45866 14.0077 6.44199 13.9243 6.40866C13.7743 6.34199 13.6493 6.22533 13.5827 6.06699C13.5577 5.99199 13.541 5.91699 13.541 5.83366V2.50033C13.541 2.49199 13.5493 2.48366 13.5493 2.46699C12.466 1.95866 11.266 1.66699 9.99935 1.66699C5.39935 1.66699 1.66602 5.40033 1.66602 10.0003C1.66602 14.6003 5.39935 18.3337 9.99935 18.3337C14.5993 18.3337 18.3327 14.6003 18.3327 10.0003C18.3327 8.73366 18.041 7.53366 17.5327 6.45033ZM11.4577 9.85032C11.991 10.0337 12.7077 10.4253 12.7077 11.6503C12.7077 12.692 11.8827 13.5503 10.8743 13.5503H10.6243V13.7587C10.6243 14.1003 10.341 14.3837 9.99935 14.3837C9.65768 14.3837 9.37435 14.1003 9.37435 13.7587V13.5503H9.30768C8.19935 13.5503 7.29102 12.617 7.29102 11.467C7.29102 11.117 7.57435 10.8337 7.91602 10.8337C8.25768 10.8337 8.54102 11.117 8.54102 11.4587C8.54102 11.917 8.88268 12.292 9.30768 12.292H9.37435V10.442L8.54102 10.1503C8.00768 9.96699 7.29102 9.57533 7.29102 8.35033C7.29102 7.30866 8.11602 6.45033 9.12435 6.45033H9.37435V6.25033C9.37435 5.90866 9.65768 5.62533 9.99935 5.62533C10.341 5.62533 10.6243 5.90866 10.6243 6.25033V6.45866H10.691C11.7993 6.45866 12.7077 7.39199 12.7077 8.54199C12.7077 8.88366 12.4243 9.16699 12.0827 9.16699C11.741 9.16699 11.4577 8.88366 11.4577 8.54199C11.4577 8.08366 11.116 7.70866 10.691 7.70866H10.6243V9.55866L11.4577 9.85032Z" fill="white"/>
<path d="M8.54102 8.35801C8.54102 8.80801 8.66602 8.87467 8.94935 8.97467L9.37435 9.12467V7.70801H9.12435C8.80768 7.70801 8.54102 7.99967 8.54102 8.35801Z" fill="white"/>
</svg>
