<svg width="24" height="24" viewBox="0 0 24 24" fill="none" xmlns="http://www.w3.org/2000/svg">
<path d="M2.85237 10.4257L5.69173 11.603C5.37159 12.4113 5.11623 13.2437 4.92804 14.0924L4.82034 14.5819L8.89091 18.6549L9.38045 18.5497C10.2292 18.3615 11.0616 18.1061 11.8698 17.786L13.0471 20.6253C13.0587 20.6535 13.077 20.6783 13.1005 20.6976C13.1241 20.7169 13.152 20.73 13.1818 20.7359C13.2117 20.7417 13.2425 20.74 13.2716 20.731C13.3006 20.7219 13.3269 20.7058 13.3482 20.6841L15.1277 18.9046C15.4181 18.6142 15.6444 18.2662 15.792 17.8829C15.9395 17.4997 16.0051 17.0898 15.9844 16.6796L15.9208 15.5365C19.2154 13.1035 22.5492 8.8371 23.4573 1.39112C23.4831 1.20444 23.4654 1.01433 23.4056 0.835605C23.3458 0.656884 23.2455 0.494384 23.1126 0.360772C22.9797 0.227159 22.8178 0.126043 22.6394 0.0653053C22.461 0.00456765 22.271 -0.0141508 22.0841 0.010609C14.6406 0.926057 10.3718 4.2623 7.93874 7.54715L6.7981 7.4884C6.38884 7.46613 5.97945 7.52976 5.59626 7.6752C5.21306 7.82064 4.86455 8.04466 4.57312 8.33287L2.79363 10.1124C2.76897 10.1333 2.7503 10.1604 2.73949 10.1909C2.72869 10.2214 2.72614 10.2543 2.7321 10.2861C2.73806 10.3179 2.75233 10.3475 2.77345 10.372C2.79457 10.3966 2.8218 10.4151 2.85237 10.4257ZM14.2686 6.08831C14.5769 5.78098 14.9695 5.57193 15.3966 5.48755C15.8237 5.40317 16.2663 5.44724 16.6684 5.6142C17.0705 5.78116 17.4141 6.06352 17.6558 6.42563C17.8975 6.78774 18.0265 7.21335 18.0265 7.64873C18.0265 8.08411 17.8975 8.50972 17.6558 8.87183C17.4141 9.23394 17.0705 9.5163 16.6684 9.68326C16.2663 9.85022 15.8237 9.89429 15.3966 9.80991C14.9695 9.72553 14.5769 9.51648 14.2686 9.20915C14.0632 9.00449 13.9002 8.7613 13.789 8.49353C13.6779 8.22576 13.6206 7.93867 13.6206 7.64873C13.6206 7.35879 13.6779 7.0717 13.789 6.80393C13.9002 6.53616 14.0632 6.29297 14.2686 6.08831ZM2.32122 18.9805C1.85004 18.8151 1.34406 18.7746 0.852585 18.863C0.808905 18.8724 0.763542 18.8706 0.720736 18.8578C0.677931 18.845 0.639079 18.8215 0.607813 18.7895C0.569052 18.7509 0.543097 18.7013 0.533465 18.6475C0.523833 18.5936 0.530989 18.5381 0.553963 18.4885C1.07533 17.3674 2.45829 15.1131 4.96231 16.9342C4.97539 16.9459 4.98586 16.9602 4.99302 16.9762C5.00018 16.9923 5.00389 17.0096 5.00389 17.0272C5.00389 17.0447 5.00018 17.0621 4.99302 17.0781C4.98586 17.0941 4.97539 17.1085 4.96231 17.1202C4.62708 17.3842 4.35867 17.7234 4.1788 18.1103C3.99893 18.4973 3.91265 18.9211 3.92693 19.3476C3.92875 19.3977 3.94945 19.4452 3.98486 19.4806C4.02028 19.516 4.06779 19.5367 4.11785 19.5385C4.54251 19.5556 4.96526 19.4728 5.35211 19.2968C5.73896 19.1208 6.07913 18.8565 6.34528 18.5252C6.35698 18.5109 6.37173 18.4993 6.38845 18.4914C6.40518 18.4834 6.42345 18.4793 6.44196 18.4793C6.46047 18.4793 6.47875 18.4834 6.49547 18.4914C6.51219 18.4993 6.52694 18.5109 6.53865 18.5252C6.88622 18.9389 7.84328 20.29 6.78342 21.5946C6.32072 22.1508 5.65776 22.5025 4.93783 22.5737C3.90979 22.6839 2.01036 23.0192 1.23443 23.9053C1.20328 23.9422 1.1627 23.9699 1.11702 23.9856C1.07133 24.0012 1.02225 24.0042 0.975018 23.9942C0.927783 23.9841 0.884161 23.9614 0.848805 23.9285C0.813449 23.8956 0.787684 23.8538 0.774258 23.8074C0.500113 22.8723 0.0742091 20.782 2.32122 18.9805Z" fill="white"/>
</svg>
