<svg width="20" height="20" viewBox="0 0 20 20" fill="none" xmlns="http://www.w3.org/2000/svg">
<path d="M15 3.33366H13.125V2.29199C13.125 1.95033 12.8417 1.66699 12.5 1.66699C12.1583 1.66699 11.875 1.95033 11.875 2.29199V17.7087C11.875 18.0503 12.1583 18.3337 12.5 18.3337C12.8417 18.3337 13.125 18.0503 13.125 17.7087V16.667H15C16.8417 16.667 18.3333 15.1753 18.3333 13.3337V6.66699C18.3333 4.82533 16.8417 3.33366 15 3.33366Z" fill="white"/>
<path d="M5.41732 3.33301C3.57565 3.33301 2.08398 4.82467 2.08398 6.66634V13.333C2.08398 15.1747 3.57565 16.6663 5.41732 16.6663H9.58398C10.0423 16.6663 10.4173 16.2913 10.4173 15.833V4.16634C10.4173 3.70801 10.0423 3.33301 9.58398 3.33301H5.41732ZM5.55898 10.3163C5.51732 10.4163 5.45898 10.508 5.38398 10.5913C5.30065 10.6663 5.20898 10.7247 5.10898 10.7663C5.00898 10.808 4.90065 10.833 4.79232 10.833C4.68398 10.833 4.57565 10.808 4.47565 10.7663C4.37565 10.7247 4.28398 10.6663 4.20065 10.5913C4.12565 10.508 4.06732 10.4163 4.01732 10.3163C3.97565 10.2163 3.95898 10.108 3.95898 9.99967C3.95898 9.78301 4.05065 9.56634 4.20065 9.40801C4.24232 9.37467 4.28398 9.34134 4.32565 9.30801C4.37565 9.27467 4.42565 9.24967 4.47565 9.23301C4.52565 9.20801 4.57565 9.19134 4.62565 9.18301C4.90898 9.12467 5.19232 9.21634 5.38398 9.40801C5.53398 9.56634 5.62565 9.78301 5.62565 9.99967C5.62565 10.108 5.60065 10.2163 5.55898 10.3163ZM8.47565 10.3163C8.43398 10.4163 8.37565 10.508 8.30065 10.5913C8.21732 10.6663 8.12565 10.7247 8.02565 10.7663C7.92565 10.808 7.81732 10.833 7.70898 10.833C7.60065 10.833 7.49232 10.808 7.39232 10.7663C7.29232 10.7247 7.20065 10.6663 7.11732 10.5913C6.95898 10.433 6.87565 10.2247 6.87565 9.99967C6.87565 9.89134 6.90065 9.78301 6.94232 9.68301C6.98398 9.57467 7.04232 9.49134 7.11732 9.40801C7.42565 9.09967 7.98398 9.09967 8.30065 9.40801C8.45065 9.56634 8.54232 9.78301 8.54232 9.99967C8.54232 10.108 8.51732 10.2163 8.47565 10.3163Z" fill="white"/>
</svg>
