<svg width="16" height="17" viewBox="0 0 16 17" fill="none" xmlns="http://www.w3.org/2000/svg">
<path d="M8 0.5C3.592 0.5 0 4.092 0 8.5C0 12.908 3.592 16.5 8 16.5C12.408 16.5 16 12.908 16 8.5C16 4.092 12.408 0.5 8 0.5ZM11.824 6.66L7.288 11.196C7.176 11.308 7.024 11.372 6.864 11.372C6.704 11.372 6.552 11.308 6.44 11.196L4.176 8.932C3.944 8.7 3.944 8.316 4.176 8.084C4.408 7.852 4.792 7.852 5.024 8.084L6.864 9.924L10.976 5.812C11.208 5.58 11.592 5.58 11.824 5.812C12.056 6.044 12.056 6.42 11.824 6.66Z" fill="#2A84FE"/>
</svg>
